<svg  xmlns="http://www.w3.org/2000/svg" xmlns:xlink="http://www.w3.org/1999/xlink" width="500" zoomAndPan="magnify" viewBox="0 0 375 374.999991" height="500" preserveAspectRatio="xMidYMid meet" version="1.0"><defs><clipPath id="id1"><path d="M 57.367188 65.777344 L 317.617188 65.777344 L 317.617188 326 L 57.367188 326 Z M 57.367188 65.777344 " clip-rule="nonzero"/></clipPath></defs><rect x="-37.5" width="450" fill="rgb(100%, 100%, 100%)" y="-37.499999" height="449.999989" fill-opacity="1"/><rect x="-37.5" width="450" fill="rgb(100%, 100%, 100%)" y="-37.499999" height="449.999989" fill-opacity="1"/><rect x="-37.5" width="450" fill="rgb(100%, 100%, 100%)" y="-37.499999" height="449.999989" fill-opacity="1"/><rect x="-37.5" width="450" fill="rgb(100%, 100%, 100%)" y="-37.499999" height="449.999989" fill-opacity="1"/><g clip-path="url(#id1)"><path fill="rgb(19.60907%, 19.60907%, 21.958923%)" d="M 252.191406 65.878906 L 122.582031 65.878906 C 86.671875 65.878906 57.367188 95.183594 57.367188 131.097656 L 57.367188 260.910156 C 57.367188 296.617188 86.671875 325.921875 122.582031 325.921875 L 252.398438 325.921875 C 288.308594 325.921875 317.617188 296.617188 317.617188 260.707031 L 317.617188 131.097656 C 317.410156 95.183594 288.101562 65.878906 252.191406 65.878906 Z M 144.046875 276.390625 L 106.898438 276.390625 L 106.898438 169.070312 L 144.046875 169.070312 Z M 125.265625 152.558594 C 114.738281 152.558594 106.277344 144.097656 106.277344 133.574219 C 106.277344 123.046875 114.738281 114.585938 125.265625 114.585938 C 135.792969 114.585938 144.253906 123.046875 144.253906 133.574219 C 144.046875 144.097656 135.585938 152.558594 125.265625 152.558594 Z M 267.875 276.390625 L 236.917969 276.390625 L 236.917969 224.382812 C 236.917969 211.792969 235.269531 195.695312 218.136719 195.695312 C 200.597656 195.695312 197.707031 209.316406 197.707031 223.554688 L 197.707031 276.390625 L 166.75 276.390625 L 166.75 169.070312 L 195.640625 169.070312 L 195.640625 183.519531 L 196.46875 183.519531 C 201.007812 175.261719 211.535156 168.863281 228.042969 168.863281 C 262.097656 168.863281 268.082031 188.472656 268.082031 217.570312 L 268.082031 276.390625 Z M 267.875 276.390625 " fill-opacity="1" fill-rule="nonzero"/></g></svg>